<?xml version="1.0" encoding="UTF-8"?>
<svg width="41px" height="39px" viewBox="0 0 41 39" version="1.1" xmlns="http://www.w3.org/2000/svg" xmlns:xlink="http://www.w3.org/1999/xlink">
    <!-- Generator: Sketch 41.2 (35397) - http://www.bohemiancoding.com/sketch -->
    <title>Icon</title>
    <desc>Created with Sketch.</desc>
    <defs></defs>
    <g id="Page-1" stroke="none" stroke-width="1" fill="none" fill-rule="evenodd">
        <g id="Icon" fill="#FFFFFF">
            <path d="M12.5145141,25.9519164 C11.8987697,25.2730329 10.8066694,25.1859887 10.0752398,25.7574978 C9.34381016,26.3290068 9.25002869,27.3426502 9.86577304,28.0215337 L19.1492002,38.2568942 C20.0105836,39.2021447 21.5432265,39.1979067 22.397411,38.2582687 L31.6950348,28.0079147 C32.3108023,27.3290493 32.2170553,26.3154031 31.4856451,25.7438726 C30.7542349,25.1723421 29.6621317,25.2593542 29.0463642,25.9382197 L20.7739597,35.0583011 L12.5145141,25.9519164 Z" id="Stroke-136"></path>
            <path d="M29.7778586,0.408128974 C35.7951448,0.408128974 40.6825313,4.88586369 40.6825313,10.4193399 C40.6825313,11.1100087 40.6058745,11.793383 40.4554008,12.4596944 C40.1376368,13.8691468 39.4922173,15.1899842 38.5702145,16.3423506 C38.0001874,17.0547998 36.9158318,17.2034529 36.1482384,16.6743768 C35.3806451,16.1453006 35.2204861,15.1388455 35.7905132,14.4263964 C36.4160405,13.6445802 36.8521249,12.7521426 37.0665723,11.8009548 C37.1683052,11.3504718 37.2201809,10.8880149 37.2201809,10.4193399 C37.2201809,6.67010433 33.8929359,3.62174295 29.7778586,3.62174295 C26.4371744,3.62174295 23.5366454,5.64930976 22.6265891,8.53099529 C22.4067214,9.22720445 21.7114817,9.70030108 20.9299883,9.685498 L20.5482642,9.67826737 C19.793101,9.66396305 19.1350997,9.19688422 18.9224419,8.52418583 C18.0115542,5.64278382 15.1106927,3.61531572 11.7701738,3.61531572 C7.65476839,3.61531572 4.32785151,6.66317526 4.32785151,10.4129127 C4.32785151,10.8813468 4.37967075,11.3431384 4.48139442,11.794237 C4.69070327,12.7202244 5.10900879,13.5903022 5.70660853,14.3548623 C6.26804928,15.0731611 6.09582044,16.0778978 5.32192464,16.5990044 C4.54802885,17.1201111 3.4655247,16.9602552 2.90408394,16.2419564 C2.0219457,15.113362 1.40283192,13.825602 1.09264747,12.4533377 C0.942074394,11.7856152 0.865501056,11.1032253 0.865501056,10.4129127 C0.865501056,4.87888644 5.75260991,0.401701747 11.7701738,0.401701747 C15.4609802,0.401701747 18.7914727,2.10038055 20.7767288,4.76475537 C22.7621375,2.10402776 26.0900241,0.408128974 29.7778586,0.408128974 Z M19.304033,7.62705577 L20.965311,8.07902553 L21.0006338,6.47255305 L20.6189097,6.46532242 L20.5835869,8.07179489 L22.2447319,7.61940395 C21.9173499,6.58379983 21.417002,5.62405398 20.7767288,4.76475537 C20.1340572,5.62602597 19.6320504,6.58839134 19.304033,7.62705577 Z" id="Stroke-138"></path>
            <path d="M17.712447,26.0412424 C18.2334807,26.9076722 19.4677007,27.1330293 20.3035042,26.5143454 L24.6477482,23.298621 L38.0861147,23.298621 C39.0422164,23.298621 39.8172899,22.579229 39.8172899,21.691814 C39.8172899,20.804399 39.0422164,20.085007 38.0861147,20.085007 L24.0419557,20.085007 C23.6497538,20.085007 23.2691751,20.208616 22.9625465,20.4355906 L19.7407613,22.8204413 L15.0782624,15.0671468 C14.4480089,14.019095 12.8472435,13.95907 12.1279555,14.9565172 L8.7044633,19.7039242 L2.54508426,19.8097146 C1.58914624,19.8261333 0.828545564,20.5587122 0.846235104,21.4459753 C0.863924643,22.3332384 1.65320573,23.0391972 2.60914375,23.0227785 L9.67233868,22.9014646 C10.2386064,22.8917387 10.7639402,22.625536 11.0789678,22.1886827 L13.4327982,18.9245914 L17.712447,26.0412424 Z" id="Stroke-140"></path>
        </g>
    </g>
</svg>